<svg id="Layer_1" data-name="Layer 1" xmlns="http://www.w3.org/2000/svg" viewBox="-102.4 -86.5104 716.8 605.5728"><title>diamond</title><polygon points="360.129 132.414 256 432.552 512 132.414 360.129 132.414" fill="#ffe182"/><polygon points="105.931 0 0 132.414 151.871 132.414 105.931 0" fill="#ffcd73"/><polygon points="360.129 132.414 512 132.414 406.069 0 360.129 132.414" fill="#ffcd73"/><polygon points="360.129 132.414 256 0 151.871 132.414 360.129 132.414" fill="#ffcd73"/><polygon points="256 0 105.931 0 151.871 132.414 256 0" fill="#ffaa64"/><polygon points="406.069 0 256 0 360.129 132.414 406.069 0" fill="#ffe182"/><polygon points="151.871 132.414 256 432.552 360.129 132.414 151.871 132.414" fill="#ffaa64"/><polygon points="0 132.414 256 432.552 151.871 132.414 0 132.414" fill="#ff8c5a"/></svg>
